<?xml version="1.0" standalone="no"?><!DOCTYPE svg PUBLIC "-//W3C//DTD SVG 1.1//EN" "http://www.w3.org/Graphics/SVG/1.1/DTD/svg11.dtd"><svg width="800" height="1600" version="1.1" xmlns="http://www.w3.org/2000/svg" xmlns:xlink="http://www.w3.org/1999/xlink"><defs xmlns="http://www.w3.org/1999/xhtml"><style type="text/css"><![CDATA[
body { background-color: rgb(234, 234, 234); }
#canvas svg { background-color: white; box-shadow: rgba(0, 0, 0, 0.0588235) 0px 3px 2px 0px, rgba(0, 0, 0, 0.0196078) -1px -1px 1px 0px inset; border-width: 1px; border-style: solid; border-color: rgb(226, 226, 226) rgb(226, 226, 226) rgb(206, 206, 206); border-image: initial; }]]></style></defs><rect x="0" y="0" width="800" height="1600" fill="rgb(150, 255, 156)" stroke="rgb(0, 0, 0)"/><polygon points="-300 60 0 -800 200 200" transform="translate(320 1300)" fill="rgb(163, 255, 168)" stroke="none"/><line x1="700" y1="-100" x2="320" y2="1200" fill="rgb(128, 128, 128)" stroke="rgb(255, 0, 0)" stroke-width="2"/><line x1="730" y1="-120" x2="320" y2="1200" fill="rgb(128, 128, 128)" stroke="rgb(255, 0, 0)" stroke-width="2"/><line x1="760" y1="-140" x2="320" y2="1200" fill="rgb(128, 128, 128)" stroke="rgb(255, 0, 0)" stroke-width="2"/><line x1="790" y1="-160" x2="320" y2="1200" fill="rgb(128, 128, 128)" stroke="rgb(255, 0, 0)" stroke-width="2"/><line x1="820" y1="-180" x2="320" y2="1200" fill="rgb(128, 128, 128)" stroke="rgb(255, 0, 0)" stroke-width="2"/><line x1="850" y1="-200" x2="320" y2="1200" fill="rgb(128, 128, 128)" stroke="rgb(255, 0, 0)" stroke-width="2"/><line x1="880" y1="-220" x2="320" y2="1200" fill="rgb(128, 128, 128)" stroke="rgb(255, 0, 0)" stroke-width="2"/><line x1="910" y1="-240" x2="320" y2="1200" fill="rgb(128, 128, 128)" stroke="rgb(255, 0, 0)" stroke-width="2"/><line x1="940" y1="-260" x2="320" y2="1200" fill="rgb(128, 128, 128)" stroke="rgb(255, 0, 0)" stroke-width="2"/><line x1="970" y1="-280" x2="320" y2="1200" fill="rgb(128, 128, 128)" stroke="rgb(255, 0, 0)" stroke-width="2"/><line x1="1000" y1="-300" x2="320" y2="1200" fill="rgb(128, 128, 128)" stroke="rgb(255, 0, 0)" stroke-width="2"/><line x1="1030" y1="-320" x2="320" y2="1200" fill="rgb(128, 128, 128)" stroke="rgb(255, 0, 0)" stroke-width="2"/><line x1="1060" y1="-340" x2="320" y2="1200" fill="rgb(128, 128, 128)" stroke="rgb(255, 0, 0)" stroke-width="2"/><line x1="1090" y1="-360" x2="320" y2="1200" fill="rgb(128, 128, 128)" stroke="rgb(255, 0, 0)" stroke-width="2"/><line x1="1120" y1="-380" x2="320" y2="1200" fill="rgb(128, 128, 128)" stroke="rgb(255, 0, 0)" stroke-width="2"/><line x1="1150" y1="-400" x2="320" y2="1200" fill="rgb(128, 128, 128)" stroke="rgb(255, 0, 0)" stroke-width="2"/><line x1="1180" y1="-420" x2="320" y2="1200" fill="rgb(128, 128, 128)" stroke="rgb(255, 0, 0)" stroke-width="2"/><line x1="1210" y1="-440" x2="320" y2="1200" fill="rgb(128, 128, 128)" stroke="rgb(255, 0, 0)" stroke-width="2"/><line x1="1240" y1="-460" x2="320" y2="1200" fill="rgb(128, 128, 128)" stroke="rgb(255, 0, 0)" stroke-width="2"/><line x1="1270" y1="-480" x2="320" y2="1200" fill="rgb(128, 128, 128)" stroke="rgb(255, 0, 0)" stroke-width="2"/><line x1="1300" y1="-500" x2="320" y2="1200" fill="rgb(128, 128, 128)" stroke="rgb(255, 0, 0)" stroke-width="2"/><line x1="1330" y1="-520" x2="320" y2="1200" fill="rgb(128, 128, 128)" stroke="rgb(255, 0, 0)" stroke-width="2"/><line x1="1360" y1="-540" x2="320" y2="1200" fill="rgb(128, 128, 128)" stroke="rgb(255, 0, 0)" stroke-width="2"/><line x1="1390" y1="-560" x2="320" y2="1200" fill="rgb(128, 128, 128)" stroke="rgb(255, 0, 0)" stroke-width="2"/><line x1="1420" y1="-580" x2="320" y2="1200" fill="rgb(128, 128, 128)" stroke="rgb(255, 0, 0)" stroke-width="2"/><line x1="1450" y1="-600" x2="320" y2="1200" fill="rgb(128, 128, 128)" stroke="rgb(255, 0, 0)" stroke-width="2"/><line x1="1480" y1="-620" x2="320" y2="1200" fill="rgb(128, 128, 128)" stroke="rgb(255, 0, 0)" stroke-width="2"/><line x1="1510" y1="-640" x2="320" y2="1200" fill="rgb(128, 128, 128)" stroke="rgb(255, 0, 0)" stroke-width="2"/><line x1="1540" y1="-660" x2="320" y2="1200" fill="rgb(128, 128, 128)" stroke="rgb(255, 0, 0)" stroke-width="2"/><line x1="1570" y1="-680" x2="320" y2="1200" fill="rgb(128, 128, 128)" stroke="rgb(255, 0, 0)" stroke-width="2"/><line x1="1600" y1="-700" x2="320" y2="1200" fill="rgb(128, 128, 128)" stroke="rgb(255, 0, 0)" stroke-width="2"/><line x1="1630" y1="-720" x2="320" y2="1200" fill="rgb(128, 128, 128)" stroke="rgb(255, 0, 0)" stroke-width="2"/><line x1="1660" y1="-740" x2="320" y2="1200" fill="rgb(128, 128, 128)" stroke="rgb(255, 0, 0)" stroke-width="2"/><line x1="1690" y1="-760" x2="320" y2="1200" fill="rgb(128, 128, 128)" stroke="rgb(255, 0, 0)" stroke-width="2"/><line x1="1720" y1="-780" x2="320" y2="1200" fill="rgb(128, 128, 128)" stroke="rgb(255, 0, 0)" stroke-width="2"/><line x1="1750" y1="-800" x2="320" y2="1200" fill="rgb(128, 128, 128)" stroke="rgb(255, 0, 0)" stroke-width="2"/><line x1="1780" y1="-820" x2="320" y2="1200" fill="rgb(128, 128, 128)" stroke="rgb(255, 0, 0)" stroke-width="2"/><line x1="1810" y1="-840" x2="320" y2="1200" fill="rgb(128, 128, 128)" stroke="rgb(255, 0, 0)" stroke-width="2"/><line x1="1840" y1="-860" x2="320" y2="1200" fill="rgb(128, 128, 128)" stroke="rgb(255, 0, 0)" stroke-width="2"/><line x1="1870" y1="-880" x2="320" y2="1200" fill="rgb(128, 128, 128)" stroke="rgb(255, 0, 0)" stroke-width="2"/><line x1="-400" y1="100" x2="311" y2="1200" fill="rgb(128, 128, 128)" stroke="rgb(255, 0, 0)" stroke-width="2"/><line x1="-380" y1="80" x2="311" y2="1200" fill="rgb(128, 128, 128)" stroke="rgb(255, 0, 0)" stroke-width="2"/><line x1="-360" y1="60" x2="311" y2="1200" fill="rgb(128, 128, 128)" stroke="rgb(255, 0, 0)" stroke-width="2"/><line x1="-340" y1="40" x2="311" y2="1200" fill="rgb(128, 128, 128)" stroke="rgb(255, 0, 0)" stroke-width="2"/><line x1="-320" y1="20" x2="311" y2="1200" fill="rgb(128, 128, 128)" stroke="rgb(255, 0, 0)" stroke-width="2"/><line x1="-300" y1="0" x2="311" y2="1200" fill="rgb(128, 128, 128)" stroke="rgb(255, 0, 0)" stroke-width="2"/><line x1="-280" y1="-20" x2="311" y2="1200" fill="rgb(128, 128, 128)" stroke="rgb(255, 0, 0)" stroke-width="2"/><line x1="-260" y1="-40" x2="311" y2="1200" fill="rgb(128, 128, 128)" stroke="rgb(255, 0, 0)" stroke-width="2"/><line x1="-240" y1="-60" x2="311" y2="1200" fill="rgb(128, 128, 128)" stroke="rgb(255, 0, 0)" stroke-width="2"/><line x1="-220" y1="-80" x2="311" y2="1200" fill="rgb(128, 128, 128)" stroke="rgb(255, 0, 0)" stroke-width="2"/><line x1="-200" y1="-100" x2="311" y2="1200" fill="rgb(128, 128, 128)" stroke="rgb(255, 0, 0)" stroke-width="2"/><line x1="-180" y1="-120" x2="311" y2="1200" fill="rgb(128, 128, 128)" stroke="rgb(255, 0, 0)" stroke-width="2"/><line x1="-160" y1="-140" x2="311" y2="1200" fill="rgb(128, 128, 128)" stroke="rgb(255, 0, 0)" stroke-width="2"/><line x1="-140" y1="-160" x2="311" y2="1200" fill="rgb(128, 128, 128)" stroke="rgb(255, 0, 0)" stroke-width="2"/><line x1="-120" y1="-180" x2="311" y2="1200" fill="rgb(128, 128, 128)" stroke="rgb(255, 0, 0)" stroke-width="2"/><line x1="-100" y1="-200" x2="311" y2="1200" fill="rgb(128, 128, 128)" stroke="rgb(255, 0, 0)" stroke-width="2"/><line x1="-80" y1="-220" x2="311" y2="1200" fill="rgb(128, 128, 128)" stroke="rgb(255, 0, 0)" stroke-width="2"/><line x1="-60" y1="-240" x2="311" y2="1200" fill="rgb(128, 128, 128)" stroke="rgb(255, 0, 0)" stroke-width="2"/><line x1="-40" y1="-260" x2="311" y2="1200" fill="rgb(128, 128, 128)" stroke="rgb(255, 0, 0)" stroke-width="2"/><line x1="-20" y1="-280" x2="311" y2="1200" fill="rgb(128, 128, 128)" stroke="rgb(255, 0, 0)" stroke-width="2"/><line x1="0" y1="-300" x2="311" y2="1200" fill="rgb(128, 128, 128)" stroke="rgb(255, 0, 0)" stroke-width="2"/><line x1="20" y1="-320" x2="311" y2="1200" fill="rgb(128, 128, 128)" stroke="rgb(255, 0, 0)" stroke-width="2"/><line x1="40" y1="-340" x2="311" y2="1200" fill="rgb(128, 128, 128)" stroke="rgb(255, 0, 0)" stroke-width="2"/><line x1="60" y1="-360" x2="311" y2="1200" fill="rgb(128, 128, 128)" stroke="rgb(255, 0, 0)" stroke-width="2"/><line x1="80" y1="-380" x2="311" y2="1200" fill="rgb(128, 128, 128)" stroke="rgb(255, 0, 0)" stroke-width="2"/><line x1="-100" y1="1800" x2="315.5" y2="1209" fill="rgb(128, 128, 128)" stroke="rgb(255, 0, 0)" stroke-width="2"/><line x1="-80" y1="1820" x2="315.5" y2="1209" fill="rgb(128, 128, 128)" stroke="rgb(255, 0, 0)" stroke-width="2"/><line x1="-60" y1="1840" x2="315.5" y2="1209" fill="rgb(128, 128, 128)" stroke="rgb(255, 0, 0)" stroke-width="2"/><line x1="-40" y1="1860" x2="315.5" y2="1209" fill="rgb(128, 128, 128)" stroke="rgb(255, 0, 0)" stroke-width="2"/><line x1="-20" y1="1880" x2="315.5" y2="1209" fill="rgb(128, 128, 128)" stroke="rgb(255, 0, 0)" stroke-width="2"/><line x1="0" y1="1900" x2="315.5" y2="1209" fill="rgb(128, 128, 128)" stroke="rgb(255, 0, 0)" stroke-width="2"/><line x1="20" y1="1920" x2="315.5" y2="1209" fill="rgb(128, 128, 128)" stroke="rgb(255, 0, 0)" stroke-width="2"/><line x1="40" y1="1940" x2="315.5" y2="1209" fill="rgb(128, 128, 128)" stroke="rgb(255, 0, 0)" stroke-width="2"/><line x1="60" y1="1960" x2="315.5" y2="1209" fill="rgb(128, 128, 128)" stroke="rgb(255, 0, 0)" stroke-width="2"/><line x1="80" y1="1980" x2="315.5" y2="1209" fill="rgb(128, 128, 128)" stroke="rgb(255, 0, 0)" stroke-width="2"/><line x1="100" y1="2000" x2="315.5" y2="1209" fill="rgb(128, 128, 128)" stroke="rgb(255, 0, 0)" stroke-width="2"/><line x1="120" y1="2020" x2="315.5" y2="1209" fill="rgb(128, 128, 128)" stroke="rgb(255, 0, 0)" stroke-width="2"/><line x1="140" y1="2040" x2="315.5" y2="1209" fill="rgb(128, 128, 128)" stroke="rgb(255, 0, 0)" stroke-width="2"/><line x1="160" y1="2060" x2="315.5" y2="1209" fill="rgb(128, 128, 128)" stroke="rgb(255, 0, 0)" stroke-width="2"/><line x1="180" y1="2080" x2="315.5" y2="1209" fill="rgb(128, 128, 128)" stroke="rgb(255, 0, 0)" stroke-width="2"/><line x1="200" y1="2100" x2="315.5" y2="1209" fill="rgb(128, 128, 128)" stroke="rgb(255, 0, 0)" stroke-width="2"/><line x1="220" y1="2120" x2="315.5" y2="1209" fill="rgb(128, 128, 128)" stroke="rgb(255, 0, 0)" stroke-width="2"/><line x1="240" y1="2140" x2="315.5" y2="1209" fill="rgb(128, 128, 128)" stroke="rgb(255, 0, 0)" stroke-width="2"/><line x1="260" y1="2160" x2="315.5" y2="1209" fill="rgb(128, 128, 128)" stroke="rgb(255, 0, 0)" stroke-width="2"/><line x1="280" y1="2180" x2="315.5" y2="1209" fill="rgb(128, 128, 128)" stroke="rgb(255, 0, 0)" stroke-width="2"/><line x1="300" y1="2200" x2="315.5" y2="1209" fill="rgb(128, 128, 128)" stroke="rgb(255, 0, 0)" stroke-width="2"/><line x1="320" y1="2220" x2="315.5" y2="1209" fill="rgb(128, 128, 128)" stroke="rgb(255, 0, 0)" stroke-width="2"/><line x1="340" y1="2240" x2="315.5" y2="1209" fill="rgb(128, 128, 128)" stroke="rgb(255, 0, 0)" stroke-width="2"/><line x1="360" y1="2260" x2="315.5" y2="1209" fill="rgb(128, 128, 128)" stroke="rgb(255, 0, 0)" stroke-width="2"/><line x1="380" y1="2280" x2="315.5" y2="1209" fill="rgb(128, 128, 128)" stroke="rgb(255, 0, 0)" stroke-width="2"/><line x1="400" y1="2300" x2="315.5" y2="1209" fill="rgb(128, 128, 128)" stroke="rgb(255, 0, 0)" stroke-width="2"/><line x1="420" y1="2320" x2="315.5" y2="1209" fill="rgb(128, 128, 128)" stroke="rgb(255, 0, 0)" stroke-width="2"/><line x1="440" y1="2340" x2="315.5" y2="1209" fill="rgb(128, 128, 128)" stroke="rgb(255, 0, 0)" stroke-width="2"/><line x1="460" y1="2360" x2="315.5" y2="1209" fill="rgb(128, 128, 128)" stroke="rgb(255, 0, 0)" stroke-width="2"/><line x1="480" y1="2380" x2="315.5" y2="1209" fill="rgb(128, 128, 128)" stroke="rgb(255, 0, 0)" stroke-width="2"/><line x1="500" y1="2400" x2="315.5" y2="1209" fill="rgb(128, 128, 128)" stroke="rgb(255, 0, 0)" stroke-width="2"/><line x1="520" y1="2420" x2="315.5" y2="1209" fill="rgb(128, 128, 128)" stroke="rgb(255, 0, 0)" stroke-width="2"/><line x1="540" y1="2440" x2="315.5" y2="1209" fill="rgb(128, 128, 128)" stroke="rgb(255, 0, 0)" stroke-width="2"/><line x1="560" y1="2460" x2="315.5" y2="1209" fill="rgb(128, 128, 128)" stroke="rgb(255, 0, 0)" stroke-width="2"/><line x1="580" y1="2480" x2="315.5" y2="1209" fill="rgb(128, 128, 128)" stroke="rgb(255, 0, 0)" stroke-width="2"/><line x1="600" y1="2500" x2="315.5" y2="1209" fill="rgb(128, 128, 128)" stroke="rgb(255, 0, 0)" stroke-width="2"/><line x1="620" y1="2520" x2="315.5" y2="1209" fill="rgb(128, 128, 128)" stroke="rgb(255, 0, 0)" stroke-width="2"/><line x1="640" y1="2540" x2="315.5" y2="1209" fill="rgb(128, 128, 128)" stroke="rgb(255, 0, 0)" stroke-width="2"/><line x1="660" y1="2560" x2="315.5" y2="1209" fill="rgb(128, 128, 128)" stroke="rgb(255, 0, 0)" stroke-width="2"/><line x1="680" y1="2580" x2="315.5" y2="1209" fill="rgb(128, 128, 128)" stroke="rgb(255, 0, 0)" stroke-width="2"/></svg>