<?xml version="1.0" standalone="no"?><!DOCTYPE svg PUBLIC "-//W3C//DTD SVG 1.1//EN" "http://www.w3.org/Graphics/SVG/1.1/DTD/svg11.dtd"><svg width="1600" height="800" version="1.1" xmlns="http://www.w3.org/2000/svg" xmlns:xlink="http://www.w3.org/1999/xlink"><defs xmlns="http://www.w3.org/1999/xhtml"><style type="text/css"><![CDATA[
body { background-color: rgb(234, 234, 234); }
#canvas svg { background-color: white; box-shadow: rgba(0, 0, 0, 0.0588235) 0px 3px 2px 0px, rgba(0, 0, 0, 0.0196078) -1px -1px 1px 0px inset; border-width: 1px; border-style: solid; border-color: rgb(226, 226, 226) rgb(226, 226, 226) rgb(206, 206, 206); border-image: initial; }]]></style></defs><rect x="0" y="0" width="800" height="800" fill="rgb(0, 0, 0)" stroke="rgb(0, 0, 0)"/><polygon points="7 0 8.230736171626148 1.303620542001924 6.657395614066075 2.1631189606246317 12.375090613727334 6.305423607493706 5.663118960624632 4.114496766047312 16.368212527466383 16.36821252746638 4.114496766047312 5.663118960624632 17.51506557637141 34.375251704798146 2.163118960624632 6.657395614066075 10.058800478409914 63.50876675637462 4.286263797015736e-16 7 -16.76466746401651 105.8479445939577 -2.1631189606246313 6.6573956140660755 -81.08826655727505 159.14468381851 -4.114496766047311 5.663118960624632 -210.4965602812035 210.49656028120353 -5.663118960624631 4.114496766047313 -442.06856616252776 225.24518488131966 -6.657395614066075 2.1631189606246326 -816.72796754597 129.35700203716462 -7 8.572527594031472e-16 -490.03678052758204 -77.61420122229863 -6.6573956140660755 -2.163118960624631 -265.2411396975167 -135.14711092879173 -5.663118960624632 -4.114496766047311 -126.29793616872213 -126.29793616872209 -4.114496766047313 -5.663118960624631 -48.65295993436504 -95.48681029110598 -2.163118960624633 -6.657395614066075 -10.058800478409921 -63.50876675637461 -1.2858791391047208e-15 -7 6.035280287045938 -38.10526005382477 2.1631189606246304 -6.6573956140660755 10.509039345822842 -20.625151022878896 4.11449676604731 -5.663118960624633 9.820927516479827 -9.820927516479832 5.663118960624631 -4.1144967660473135 7.425054368236401 -3.783254164496226 6.657395614066075 -2.1631189606246335 4.938441702975689 -0.7821723252011558" transform="rotate(142 890 740) translate(860 740)" fill="rgb(0, 0, 0)" stroke="rgb(0, 0, 0)"/><path transform="translate(320 320)" fill="rgb(255, 255, 255)" stroke="rgb(255, 255, 255)" stroke-opacity="0.4" stroke-width="1.5" d="M 0 0 C 500 0 50 -50 100 0 C 469.97231848508466 172.01007166283435 50 -50 101 3 C 383.2713598028822 323.3938048432696 50 -50 102 6 C 250.48340033191843 436.0127018922193 50 -50 103 9 C 87.84310679709267 496.403876506104 50 -50 104 12 C -86.16325591364448 497.403876506104 50 -50 105 15 C -248.6728944540768 439.01270189221935 50 -50 106 18 C -380.33879661637826 328.3938048432697 50 -50 107 21 C -467.4546364003896 179.01007166283443 50 -50 108 24 C -499.57493779014357 9.00000000000006 50 -50 109 27 C -468.9973284858432 -161.01007166283432 50 -50 110 30 C -380.11201513105374 -310.3938048432696 50 -50 111 33 C -246.46051947749487 -421.01270189221924 50 -50 112 36 C -82.01987374104347 -479.403876506104 50 -50 113 39 C 89.68584027398673 -478.40387650610404 50 -50 114 42 C 256.3869227733813 -418.0127018922193 50 -50 115 45 C 387.00354064641107 -305.3938048432698 50 -50 116 48 C 471.15391277551487 -154.0100716628343 50 -50 117 51 C 505.4738078480753 17.99999999999988 50 -50 118 54 C 471.3952978750921 190.01007166283446 50 -50 119 57 C 386.3725079245101 341.39380484326955 50 -50 120 60 C 255.70622531774345 454.0127018922194 50 -50 121 63 C 87.69807413864164 514.403876506104 50 -50 122 66 C -83.718786258542 515.4038765061041 50 -50 123 69 C -243.38752238507968 457.0127018922196 50 -50 124 72 C -370.79689113784633 346.3938048432695 50 -50 125 75 C -467.66816573774634 197.01007166283435 50 -50 126 78 C -496.1007688144808 27.000000000000185 50 -50 127 81 C -468.5221021708678 -143.010071662834 50 -50 128 84 C -377.6675762049509 -292.3938048432699 50 -50 129 87 C -246.65331420372232 -403.01270189221935 50 -50 130 90 C -73.68664975820255 -461.403876506104 50 -50 131 93 C 92.23484832269256 -460.40387650610404 50 -50 132 96 C 262.9599261351436 -400.0127018922196 50 -50 133 99 C 387.66689868024406 -287.3938048432695 50 -50 134 102 C 476.6565649601987 -136.0100716628344 50 -50 135 105 C 507.79306465181116 35.99999999999976 50 -50 136 108 C 483.0426972888885 208.01007166283395 50 -50 137 111 C 389.69396945983294 359.39380484326983 50 -50 138 114 C 250.92523000659517 472.01270189221935 50 -50 139 117 C 87.55839712562329 532.403876506104 50 -50 140 120 C -78.83124049495026 533.4038765061041 50 -50 141 123 C -235.97170395089108 475.0127018922192 50 -50 142 126 C -367.13521254678676 364.39380484326955 50 -50 143 129 C -458.4955050393507 215.01007166283446 50 -50 144 132 C -486.96358181681717 45.000000000000306 50 -50 145 135 C -459.2300044319761 -125.0100716628339 50 -50 146 138 C -373.7573663318419 -274.39380484326915 50 -50 147 141 C -244.71520808094203 -385.01270189221884 50 -50 148 144 C -72.82749300344611 -443.4038765061041 50 -50 149 147 C 107.98970191135271 -442.4038765061039 50 -50 150 150 C 270.9479921141251 -382.0127018922192 50 -50 151 153 C 405.6022744856771 -269.3938048432696 50 -50 152 156 C 472.0992710235551 -118.01007166283452 50 -50 153 159 C 503.4779088475477 53.99999999999963 50 -50 154 162 C 479.2688970526941 226.01007166283384 50 -50 155 165 C 404.61243179576405 377.3938048432691 50 -50 156 168 C 261.86847970771805 490.01270189221884 50 -50 157 171 C 106.4476592973561 550.4038765061041 50 -50 158 174 C -63.60313505486843 551.4038765061039 50 -50 159 177 C -226.23479620081758 493.01270189221924 50 -50 160 180 C -362.06246294148434 382.39380484326966 50 -50 161 183 C -451.36076367076146 233.01007166283458 50 -50 162 186 C -469.87049169627494 63.000000000000426 50 -50 163 189 C -445.04569506921194 -107.01007166283378 50 -50 164 192 C -364.6108362058849 -256.39380484326904 50 -50 165 195 C -236.5654467990447 -367.0127018922188 50 -50 166 198 C -80.54629269681101 -425.4038765061041 50 -50 167 201 C 114.08687430535372 -424.4038765061039 50 -50 168 204 C 257.8655269789686 -364.01270189221924 50 -50 169 207" fill-rule="evenodd"/></svg>