<?xml version="1.0" standalone="no"?><!DOCTYPE svg PUBLIC "-//W3C//DTD SVG 1.1//EN" "http://www.w3.org/Graphics/SVG/1.1/DTD/svg11.dtd"><svg width="600" height="800" version="1.1" xmlns="http://www.w3.org/2000/svg" xmlns:xlink="http://www.w3.org/1999/xlink"><defs xmlns="http://www.w3.org/1999/xhtml"><style type="text/css"><![CDATA[
body { background-color: rgb(234, 234, 234); }
#canvas svg { box-shadow: rgba(0, 0, 0, 0.0588235) 0px 3px 2px 0px, rgba(0, 0, 0, 0.0196078) -1px -1px 1px 0px inset; border-width: 1px; border-style: solid; border-color: rgb(226, 226, 226) rgb(226, 226, 226) rgb(206, 206, 206); background-color: white; }]]></style></defs><rect x="0" y="0" width="600" height="800" fill="rgb(0, 0, 0)" stroke="none"/><ellipse cx="241.1873573313757" cy="350.6909490160318" rx="0.4" ry="0.4" fill="rgb(255, 255, 255)" stroke="none"/><ellipse cx="448.2254702137783" cy="353.9447189344802" rx="0.4" ry="0.4" fill="rgb(255, 255, 255)" stroke="none"/><ellipse cx="206.36197936908977" cy="713.667105467259" rx="0.4" ry="0.4" fill="rgb(255, 255, 255)" stroke="none"/><ellipse cx="558.1105744864658" cy="605.7165536439195" rx="0.4" ry="0.4" fill="rgb(255, 255, 255)" stroke="none"/><ellipse cx="405.8533169152303" cy="444.9693803743099" rx="0.4" ry="0.4" fill="rgb(255, 255, 255)" stroke="none"/><ellipse cx="484.56453035931906" cy="458.6097884411059" rx="0.4" ry="0.4" fill="rgb(255, 255, 255)" stroke="none"/><ellipse cx="321.84499981871943" cy="730.3992184963868" rx="0.4" ry="0.4" fill="rgb(255, 255, 255)" stroke="none"/><ellipse cx="331.1423553733071" cy="476.46588908612557" rx="0.4" ry="0.4" fill="rgb(255, 255, 255)" stroke="none"/><ellipse cx="535.2150579266117" cy="349.9179459363992" rx="0.4" ry="0.4" fill="rgb(255, 255, 255)" stroke="none"/><ellipse cx="528.1518679604204" cy="107.67021834446524" rx="0.4" ry="0.4" fill="rgb(255, 255, 255)" stroke="none"/><ellipse cx="164.38672487284992" cy="540.050592926664" rx="0.4" ry="0.4" fill="rgb(255, 255, 255)" stroke="none"/><ellipse cx="342.7531486664324" cy="437.84366622024163" rx="0.4" ry="0.4" fill="rgb(255, 255, 255)" stroke="none"/><ellipse cx="543.9837501470773" cy="626.4201546890664" rx="0.4" ry="0.4" fill="rgb(255, 255, 255)" stroke="none"/><ellipse cx="113.20547011889963" cy="501.1226800686918" rx="0.4" ry="0.4" fill="rgb(255, 255, 255)" stroke="none"/><ellipse cx="143.47834599613032" cy="680.845188575942" rx="0.4" ry="0.4" fill="rgb(255, 255, 255)" stroke="none"/><ellipse cx="432.38626755882376" cy="446.91273903149454" rx="0.4" ry="0.4" fill="rgb(255, 255, 255)" stroke="none"/><ellipse cx="492.97420995225775" cy="374.6262372258844" rx="0.4" ry="0.4" fill="rgb(255, 255, 255)" stroke="none"/><ellipse cx="461.9880332116162" cy="26.57468182728504" rx="0.4" ry="0.4" fill="rgb(255, 255, 255)" stroke="none"/><ellipse cx="171.2111238475586" cy="699.8744860483769" rx="0.4" ry="0.4" fill="rgb(255, 255, 255)" stroke="none"/><ellipse cx="491.4335306299418" cy="617.6528139458251" rx="0.4" ry="0.4" fill="rgb(255, 255, 255)" stroke="none"/><ellipse cx="449.1327558151308" cy="166.6771153637285" rx="0.4" ry="0.4" fill="rgb(255, 255, 255)" stroke="none"/><ellipse cx="84.73294464710328" cy="179.2127410559509" rx="0.4" ry="0.4" fill="rgb(255, 255, 255)" stroke="none"/><ellipse cx="229.25440001505697" cy="262.7440520468422" rx="0.4" ry="0.4" fill="rgb(255, 255, 255)" stroke="none"/><ellipse cx="167.40004033985966" cy="123.8825064630035" rx="0.4" ry="0.4" fill="rgb(255, 255, 255)" stroke="none"/><ellipse cx="484.14308651559895" cy="183.798938096818" rx="0.4" ry="0.4" fill="rgb(255, 255, 255)" stroke="none"/><ellipse cx="538.2181744213457" cy="472.126566600846" rx="0.4" ry="0.4" fill="rgb(255, 255, 255)" stroke="none"/><ellipse cx="284.4077275009339" cy="332.25911018959755" rx="0.4" ry="0.4" fill="rgb(255, 255, 255)" stroke="none"/><ellipse cx="371.8651299377607" cy="100.03729500754872" rx="0.4" ry="0.4" fill="rgb(255, 255, 255)" stroke="none"/><ellipse cx="357.47967934037865" cy="473.5502363047587" rx="0.4" ry="0.4" fill="rgb(255, 255, 255)" stroke="none"/><ellipse cx="568.9403049332625" cy="752.1931119857397" rx="0.4" ry="0.4" fill="rgb(255, 255, 255)" stroke="none"/><ellipse cx="215.51412690145608" cy="39.00765426168338" rx="0.4" ry="0.4" fill="rgb(255, 255, 255)" stroke="none"/><ellipse cx="493.9878335569023" cy="365.4103137371591" rx="0.4" ry="0.4" fill="rgb(255, 255, 255)" stroke="none"/><ellipse cx="392.1557703923273" cy="188.39585189357456" rx="0.4" ry="0.4" fill="rgb(255, 255, 255)" stroke="none"/><ellipse cx="164.82108521706365" cy="93.74581071079203" rx="0.4" ry="0.4" fill="rgb(255, 255, 255)" stroke="none"/><ellipse cx="365.59238098924726" cy="433.55514659147724" rx="0.4" ry="0.4" fill="rgb(255, 255, 255)" stroke="none"/><ellipse cx="34.82903042323229" cy="269.13679299861747" rx="0.4" ry="0.4" fill="rgb(255, 255, 255)" stroke="none"/><ellipse cx="93.26032648589471" cy="593.1128525506322" rx="0.4" ry="0.4" fill="rgb(255, 255, 255)" stroke="none"/><ellipse cx="462.4162889244419" cy="765.079205867095" rx="0.4" ry="0.4" fill="rgb(255, 255, 255)" stroke="none"/><ellipse cx="132.17424778802308" cy="769.2835552148612" rx="0.4" ry="0.4" fill="rgb(255, 255, 255)" stroke="none"/><ellipse cx="268.31268346539946" cy="311.60602616931817" rx="0.4" ry="0.4" fill="rgb(255, 255, 255)" stroke="none"/><ellipse cx="447.8146287492826" cy="107.07251705912188" rx="0.4" ry="0.4" fill="rgb(255, 255, 255)" stroke="none"/><ellipse cx="134.15400213409035" cy="295.2201150679178" rx="0.4" ry="0.4" fill="rgb(255, 255, 255)" stroke="none"/><ellipse cx="118.40380907659748" cy="155.2080766036678" rx="0.4" ry="0.4" fill="rgb(255, 255, 255)" stroke="none"/><ellipse cx="254.09699385081402" cy="555.1810703914457" rx="0.4" ry="0.4" fill="rgb(255, 255, 255)" stroke="none"/><ellipse cx="28.502849866031088" cy="464.31329099553193" rx="0.4" ry="0.4" fill="rgb(255, 255, 255)" stroke="none"/><ellipse cx="545.2037300149763" cy="747.7143801397043" rx="0.4" ry="0.4" fill="rgb(255, 255, 255)" stroke="none"/><ellipse cx="367.5888453322952" cy="66.96945992982836" rx="0.4" ry="0.4" fill="rgb(255, 255, 255)" stroke="none"/><ellipse cx="219.86590321712742" cy="139.28340519115193" rx="0.4" ry="0.4" fill="rgb(255, 255, 255)" stroke="none"/><ellipse cx="275.15300779896086" cy="647.8757215426955" rx="0.4" ry="0.4" fill="rgb(255, 255, 255)" stroke="none"/><ellipse cx="271.3667494106314" cy="302.02592343056693" rx="0.4" ry="0.4" fill="rgb(255, 255, 255)" stroke="none"/><ellipse cx="390.4113841830298" cy="126.95363801946122" rx="0.4" ry="0.4" fill="rgb(255, 255, 255)" stroke="none"/><ellipse cx="206.89090161542424" cy="176.00975169739445" rx="0.4" ry="0.4" fill="rgb(255, 255, 255)" stroke="none"/><ellipse cx="120.64426332019198" cy="52.043799269715585" rx="0.4" ry="0.4" fill="rgb(255, 255, 255)" stroke="none"/><ellipse cx="261.51953274447834" cy="190.5062805229523" rx="0.4" ry="0.4" fill="rgb(255, 255, 255)" stroke="none"/><ellipse cx="422.1839615446682" cy="149.46434078513846" rx="0.4" ry="0.4" fill="rgb(255, 255, 255)" stroke="none"/><ellipse cx="499.1085851954285" cy="494.9837384269429" rx="0.4" ry="0.4" fill="rgb(255, 255, 255)" stroke="none"/><ellipse cx="192.7047394471467" cy="680.9094788190524" rx="0.4" ry="0.4" fill="rgb(255, 255, 255)" stroke="none"/><ellipse cx="219.47695291053373" cy="501.1861441887239" rx="0.4" ry="0.4" fill="rgb(255, 255, 255)" stroke="none"/><ellipse cx="556.2169668658395" cy="311.43360513132274" rx="0.4" ry="0.4" fill="rgb(255, 255, 255)" stroke="none"/><ellipse cx="497.0491916516345" cy="523.783043034275" rx="0.4" ry="0.4" fill="rgb(255, 255, 255)" stroke="none"/><ellipse cx="198.45689515624844" cy="204.71898206300185" rx="0.4" ry="0.4" fill="rgb(255, 255, 255)" stroke="none"/><ellipse cx="577.6099950832429" cy="680.4826523228759" rx="0.4" ry="0.4" fill="rgb(255, 255, 255)" stroke="none"/><ellipse cx="355.6122797735748" cy="201.02729481467546" rx="0.4" ry="0.4" fill="rgb(255, 255, 255)" stroke="none"/><ellipse cx="260.40885902983104" cy="426.50810892442763" rx="0.4" ry="0.4" fill="rgb(255, 255, 255)" stroke="none"/><ellipse cx="6.926887680837046" cy="646.138634905358" rx="0.4" ry="0.4" fill="rgb(255, 255, 255)" stroke="none"/><ellipse cx="272.50719424798746" cy="411.5414730826293" rx="0.4" ry="0.4" fill="rgb(255, 255, 255)" stroke="none"/><ellipse cx="107.80278042147225" cy="275.9252256760577" rx="0.4" ry="0.4" fill="rgb(255, 255, 255)" stroke="none"/><ellipse cx="562.2893434609848" cy="217.59492720492835" rx="0.4" ry="0.4" fill="rgb(255, 255, 255)" stroke="none"/><ellipse cx="23.359838373143926" cy="502.28232603300944" rx="0.4" ry="0.4" fill="rgb(255, 255, 255)" stroke="none"/><ellipse cx="95.4130161117174" cy="290.0767173234748" rx="0.4" ry="0.4" fill="rgb(255, 255, 255)" stroke="none"/><ellipse cx="340.4425205695145" cy="546.0043443220829" rx="0.4" ry="0.4" fill="rgb(255, 255, 255)" stroke="none"/><ellipse cx="338.237031663854" cy="190.4097959337429" rx="0.4" ry="0.4" fill="rgb(255, 255, 255)" stroke="none"/><ellipse cx="24.236022307451854" cy="528.970251848908" rx="0.4" ry="0.4" fill="rgb(255, 255, 255)" stroke="none"/><ellipse cx="25.902444345509945" cy="589.0560734245873" rx="0.4" ry="0.4" fill="rgb(255, 255, 255)" stroke="none"/><ellipse cx="314.122768435051" cy="444.4996119059191" rx="0.4" ry="0.4" fill="rgb(255, 255, 255)" stroke="none"/><ellipse cx="267.3178526912096" cy="428.79450027058664" rx="0.4" ry="0.4" fill="rgb(255, 255, 255)" stroke="none"/><ellipse cx="307.49469191832765" cy="23.25553049246114" rx="0.4" ry="0.4" fill="rgb(255, 255, 255)" stroke="none"/><ellipse cx="590.5974948466122" cy="191.28491477671582" rx="0.4" ry="0.4" fill="rgb(255, 255, 255)" stroke="none"/><ellipse cx="454.1244857666814" cy="777.6450662712898" rx="0.4" ry="0.4" fill="rgb(255, 255, 255)" stroke="none"/><ellipse cx="382.0953069475251" cy="642.8959745188794" rx="0.4" ry="0.4" fill="rgb(255, 255, 255)" stroke="none"/><ellipse cx="99.4589577165014" cy="65.26119471154016" rx="0.4" ry="0.4" fill="rgb(255, 255, 255)" stroke="none"/><ellipse cx="466.11472139149737" cy="294.1854884306137" rx="0.4" ry="0.4" fill="rgb(255, 255, 255)" stroke="none"/><ellipse cx="593.9594785385341" cy="396.87243627509423" rx="0.4" ry="0.4" fill="rgb(255, 255, 255)" stroke="none"/><ellipse cx="65.58339492676862" cy="683.7745387444565" rx="0.4" ry="0.4" fill="rgb(255, 255, 255)" stroke="none"/><ellipse cx="150.7622836339175" cy="539.7578438351654" rx="0.4" ry="0.4" fill="rgb(255, 255, 255)" stroke="none"/><ellipse cx="372.242129182782" cy="26.786722729409362" rx="0.4" ry="0.4" fill="rgb(255, 255, 255)" stroke="none"/><ellipse cx="241.6213278316985" cy="778.8606983303932" rx="0.4" ry="0.4" fill="rgb(255, 255, 255)" stroke="none"/><ellipse cx="373.9525754721027" cy="607.1121352645798" rx="0.4" ry="0.4" fill="rgb(255, 255, 255)" stroke="none"/><ellipse cx="157.9752012765905" cy="125.37802853727769" rx="0.4" ry="0.4" fill="rgb(255, 255, 255)" stroke="none"/><ellipse cx="468.84011567353963" cy="329.9702432351189" rx="0.4" ry="0.4" fill="rgb(255, 255, 255)" stroke="none"/><ellipse cx="303.364696890659" cy="39.00175233078915" rx="0.4" ry="0.4" fill="rgb(255, 255, 255)" stroke="none"/><ellipse cx="146.8951939991148" cy="512.7423800861648" rx="0.4" ry="0.4" fill="rgb(255, 255, 255)" stroke="none"/><ellipse cx="217.55003877607416" cy="570.2345847713426" rx="0.4" ry="0.4" fill="rgb(255, 255, 255)" stroke="none"/><ellipse cx="265.7762018376763" cy="638.347206312948" rx="0.4" ry="0.4" fill="rgb(255, 255, 255)" stroke="none"/><ellipse cx="561.8015951316927" cy="124.28922621260483" rx="0.4" ry="0.4" fill="rgb(255, 255, 255)" stroke="none"/><ellipse cx="191.8790882514927" cy="581.9637836548358" rx="0.4" ry="0.4" fill="rgb(255, 255, 255)" stroke="none"/><ellipse cx="501.35819913774463" cy="329.9316937895529" rx="0.4" ry="0.4" fill="rgb(255, 255, 255)" stroke="none"/><ellipse cx="343.78409488259683" cy="690.4199318875296" rx="0.4" ry="0.4" fill="rgb(255, 255, 255)" stroke="none"/><ellipse cx="305.36704846756913" cy="208.21603571939295" rx="0.4" ry="0.4" fill="rgb(255, 255, 255)" stroke="none"/><ellipse cx="484.9669186412201" cy="0.13622622247559946" rx="0.4" ry="0.4" fill="rgb(255, 255, 255)" stroke="none"/><ellipse cx="267.8088232291539" cy="685.3850918215121" rx="0.4" ry="0.4" fill="rgb(255, 255, 255)" stroke="none"/><ellipse cx="192.55334722652572" cy="126.75730689978568" rx="0.4" ry="0.4" fill="rgb(255, 255, 255)" stroke="none"/><ellipse cx="22.464193554865687" cy="728.9877915381463" rx="0.4" ry="0.4" fill="rgb(255, 255, 255)" stroke="none"/><ellipse cx="400.1523988480407" cy="413.59431680404856" rx="0.4" ry="0.4" fill="rgb(255, 255, 255)" stroke="none"/><ellipse cx="586.9648831419136" cy="108.85597677328853" rx="0.4" ry="0.4" fill="rgb(255, 255, 255)" stroke="none"/><ellipse cx="58.25409748442061" cy="673.2989678737719" rx="0.4" ry="0.4" fill="rgb(255, 255, 255)" stroke="none"/><ellipse cx="408.1850101036065" cy="569.3154924838842" rx="0.4" ry="0.4" fill="rgb(255, 255, 255)" stroke="none"/><ellipse cx="583.4406800434258" cy="440.5354071475706" rx="0.4" ry="0.4" fill="rgb(255, 255, 255)" stroke="none"/><ellipse cx="253.9621921196413" cy="577.398112617349" rx="0.4" ry="0.4" fill="rgb(255, 255, 255)" stroke="none"/><ellipse cx="121.60555623456344" cy="526.2634474439236" rx="0.4" ry="0.4" fill="rgb(255, 255, 255)" stroke="none"/><ellipse cx="146.46068541556656" cy="690.6337937277546" rx="0.4" ry="0.4" fill="rgb(255, 255, 255)" stroke="none"/><ellipse cx="298.6050975451668" cy="608.3078267622044" rx="0.4" ry="0.4" fill="rgb(255, 255, 255)" stroke="none"/><ellipse cx="397.1082411381287" cy="332.5945374982887" rx="0.4" ry="0.4" fill="rgb(255, 255, 255)" stroke="none"/><ellipse cx="291.8969532311569" cy="402.7208846611096" rx="0.4" ry="0.4" fill="rgb(255, 255, 255)" stroke="none"/><ellipse cx="333.8395686671083" cy="168.98982218158096" rx="0.4" ry="0.4" fill="rgb(255, 255, 255)" stroke="none"/><ellipse cx="533.5945318927642" cy="11.385522561743144" rx="0.4" ry="0.4" fill="rgb(255, 255, 255)" stroke="none"/><ellipse cx="512.049167411916" cy="3.49684129223764" rx="0.4" ry="0.4" fill="rgb(255, 255, 255)" stroke="none"/><ellipse cx="550.1813041283467" cy="559.8395644721987" rx="0.4" ry="0.4" fill="rgb(255, 255, 255)" stroke="none"/><ellipse cx="23.727270383959453" cy="490.3132294105401" rx="0.4" ry="0.4" fill="rgb(255, 255, 255)" stroke="none"/><ellipse cx="260.51419054861424" cy="415.4273671398867" rx="0.4" ry="0.4" fill="rgb(255, 255, 255)" stroke="none"/><ellipse cx="153.92974605558254" cy="302.39757601973326" rx="0.4" ry="0.4" fill="rgb(255, 255, 255)" stroke="none"/><ellipse cx="254.19941689357216" cy="159.7044788153566" rx="0.4" ry="0.4" fill="rgb(255, 255, 255)" stroke="none"/><ellipse cx="424.7511104359146" cy="43.60865320102274" rx="0.4" ry="0.4" fill="rgb(255, 255, 255)" stroke="none"/><ellipse cx="355.4396324743508" cy="159.04023426902486" rx="0.4" ry="0.4" fill="rgb(255, 255, 255)" stroke="none"/><ellipse cx="525.8824482280488" cy="392.2538523906615" rx="0.4" ry="0.4" fill="rgb(255, 255, 255)" stroke="none"/><ellipse cx="107.22330471611028" cy="440.63864953316204" rx="0.4" ry="0.4" fill="rgb(255, 255, 255)" stroke="none"/><ellipse cx="440.16497358362165" cy="166.00370030496413" rx="0.4" ry="0.4" fill="rgb(255, 255, 255)" stroke="none"/><ellipse cx="169.56709405893773" cy="256.76281487725043" rx="0.4" ry="0.4" fill="rgb(255, 255, 255)" stroke="none"/><ellipse cx="528.0251948046734" cy="54.172658403316554" rx="0.4" ry="0.4" fill="rgb(255, 255, 255)" stroke="none"/><ellipse cx="94.1614170702497" cy="171.67984103559704" rx="0.4" ry="0.4" fill="rgb(255, 255, 255)" stroke="none"/><ellipse cx="86.37634560535572" cy="645.9232940921618" rx="0.4" ry="0.4" fill="rgb(255, 255, 255)" stroke="none"/><ellipse cx="391.92760021966643" cy="761.8903278648007" rx="0.4" ry="0.4" fill="rgb(255, 255, 255)" stroke="none"/><ellipse cx="276.26053043894035" cy="438.2976580351731" rx="0.4" ry="0.4" fill="rgb(255, 255, 255)" stroke="none"/><ellipse cx="206.3843067922706" cy="135.51110255651597" rx="0.4" ry="0.4" fill="rgb(255, 255, 255)" stroke="none"/><ellipse cx="395.7772581130942" cy="471.30054127251685" rx="0.4" ry="0.4" fill="rgb(255, 255, 255)" stroke="none"/><ellipse cx="584.4695926321388" cy="760.3630497519542" rx="0.4" ry="0.4" fill="rgb(255, 255, 255)" stroke="none"/><ellipse cx="546.9686657406714" cy="793.9382714632997" rx="0.4" ry="0.4" fill="rgb(255, 255, 255)" stroke="none"/><ellipse cx="434.2779167061939" cy="672.12256535212" rx="0.4" ry="0.4" fill="rgb(255, 255, 255)" stroke="none"/><ellipse cx="119.8071138592598" cy="612.15852405839" rx="0.4" ry="0.4" fill="rgb(255, 255, 255)" stroke="none"/><ellipse cx="500.41925483436455" cy="260.9902139706909" rx="0.4" ry="0.4" fill="rgb(255, 255, 255)" stroke="none"/><ellipse cx="396.6178603695697" cy="687.3210442742514" rx="0.4" ry="0.4" fill="rgb(255, 255, 255)" stroke="none"/><ellipse cx="283.57281330116433" cy="206.13066145465382" rx="0.4" ry="0.4" fill="rgb(255, 255, 255)" stroke="none"/><ellipse cx="534.3738514559524" cy="707.7698468979071" rx="0.4" ry="0.4" fill="rgb(255, 255, 255)" stroke="none"/><ellipse cx="214.44728814533613" cy="544.8049152523853" rx="0.4" ry="0.4" fill="rgb(255, 255, 255)" stroke="none"/><ellipse cx="135.81308045404805" cy="402.4797471207147" rx="52.906540227024024" ry="52.906540227024024" fill="rgb(80, 80, 80)" stroke="rgb(0, 0, 0)"/><ellipse cx="95.72136465088555" cy="629.0546979842189" rx="32.860682325442774" ry="32.860682325442774" fill="rgb(130, 130, 130)" stroke="rgb(0, 0, 0)"/><ellipse cx="343.8445108829658" cy="677.1778442162991" rx="56.9222554414829" ry="56.9222554414829" fill="rgb(80, 80, 80)" stroke="rgb(0, 0, 0)"/><ellipse cx="556.0243622962909" cy="156.02436229629086" rx="63.01218114814544" ry="63.01218114814544" fill="rgb(40, 40, 40)" stroke="rgb(0, 0, 0)"/><text x="109" y="505" fill="rgb(255, 255, 255)" stroke="none" text-anchor="start" font-family="sans-serif" font-size="12" letter-spacing="0.5">The Martian</text><ellipse cx="100" cy="500" rx="5" ry="5" fill="rgb(255, 255, 255)" stroke="none"/></svg>