<?xml version="1.0" standalone="no"?><!DOCTYPE svg PUBLIC "-//W3C//DTD SVG 1.1//EN" "http://www.w3.org/Graphics/SVG/1.1/DTD/svg11.dtd"><svg width="600" height="800" version="1.1" xmlns:xlink="http://www.w3.org/1999/xlink" xmlns="http://www.w3.org/2000/svg"><defs xmlns="http://www.w3.org/1999/xhtml"><style type="text/css"><![CDATA[
body { background-color: rgb(234, 234, 234); }
#canvas svg { box-shadow: rgba(0, 0, 0, 0.0588235) 0px 3px 2px 0px, rgba(0, 0, 0, 0.0196078) -1px -1px 1px 0px inset; border-width: 1px; border-style: solid; border-color: rgb(226, 226, 226) rgb(226, 226, 226) rgb(206, 206, 206); background-color: white; }]]></style></defs><defs xmlns="http://www.w3.org/1999/xhtml"><style type="text/css"></style></defs><rect x="0" y="0" width="600" height="800" fill="rgb(0, 0, 0)" stroke="none"/><ellipse cx="287.7521679080866" cy="51.844433570019" rx="0.4" ry="0.4" fill="rgb(255, 255, 255)" stroke="none"/><ellipse cx="588.9888246260623" cy="329.98357282663164" rx="0.4" ry="0.4" fill="rgb(255, 255, 255)" stroke="none"/><ellipse cx="367.5682835199937" cy="535.5251770983544" rx="0.4" ry="0.4" fill="rgb(255, 255, 255)" stroke="none"/><ellipse cx="434.271894809309" cy="102.90012976806563" rx="0.4" ry="0.4" fill="rgb(255, 255, 255)" stroke="none"/><ellipse cx="335.6607272850957" cy="83.95387427027785" rx="0.4" ry="0.4" fill="rgb(255, 255, 255)" stroke="none"/><ellipse cx="63.36353571732873" cy="761.6483011147747" rx="0.4" ry="0.4" fill="rgb(255, 255, 255)" stroke="none"/><ellipse cx="507.6805120410861" cy="596.9041474081123" rx="0.4" ry="0.4" fill="rgb(255, 255, 255)" stroke="none"/><ellipse cx="29.966700383684852" cy="21.01928397634758" rx="0.4" ry="0.4" fill="rgb(255, 255, 255)" stroke="none"/><ellipse cx="85.40438382983466" cy="279.234156333384" rx="0.4" ry="0.4" fill="rgb(255, 255, 255)" stroke="none"/><ellipse cx="533.5524694659855" cy="444.26145127482107" rx="0.4" ry="0.4" fill="rgb(255, 255, 255)" stroke="none"/><ellipse cx="500.87155025381725" cy="232.27958525409082" rx="0.4" ry="0.4" fill="rgb(255, 255, 255)" stroke="none"/><ellipse cx="358.8760537407512" cy="362.01111316375665" rx="0.4" ry="0.4" fill="rgb(255, 255, 255)" stroke="none"/><ellipse cx="177.06473533386483" cy="673.958299076058" rx="0.4" ry="0.4" fill="rgb(255, 255, 255)" stroke="none"/><ellipse cx="584.5051682754907" cy="160.28584749670412" rx="0.4" ry="0.4" fill="rgb(255, 255, 255)" stroke="none"/><ellipse cx="261.64586155084305" cy="774.9082850165258" rx="0.4" ry="0.4" fill="rgb(255, 255, 255)" stroke="none"/><ellipse cx="586.6570159202372" cy="410.75958315452414" rx="0.4" ry="0.4" fill="rgb(255, 255, 255)" stroke="none"/><ellipse cx="505.1779588920469" cy="352.1321397150405" rx="0.4" ry="0.4" fill="rgb(255, 255, 255)" stroke="none"/><ellipse cx="581.2556044995899" cy="325.24012358698593" rx="0.4" ry="0.4" fill="rgb(255, 255, 255)" stroke="none"/><ellipse cx="207.9101025815155" cy="275.59970943334696" rx="0.4" ry="0.4" fill="rgb(255, 255, 255)" stroke="none"/><ellipse cx="75.06001898135474" cy="54.11927337125224" rx="0.4" ry="0.4" fill="rgb(255, 255, 255)" stroke="none"/><ellipse cx="41.26223619895026" cy="731.6347318066215" rx="0.4" ry="0.4" fill="rgb(255, 255, 255)" stroke="none"/><ellipse cx="443.37672301779526" cy="486.344594240412" rx="0.4" ry="0.4" fill="rgb(255, 255, 255)" stroke="none"/><ellipse cx="499.93028884985887" cy="552.7558904338766" rx="0.4" ry="0.4" fill="rgb(255, 255, 255)" stroke="none"/><ellipse cx="435.1334892032724" cy="684.7076469891388" rx="0.4" ry="0.4" fill="rgb(255, 255, 255)" stroke="none"/><ellipse cx="500.45744349133713" cy="735.0709869550409" rx="0.4" ry="0.4" fill="rgb(255, 255, 255)" stroke="none"/><ellipse cx="40.448210650509296" cy="107.50780447805025" rx="0.4" ry="0.4" fill="rgb(255, 255, 255)" stroke="none"/><ellipse cx="392.13414219659217" cy="521.9445342089576" rx="0.4" ry="0.4" fill="rgb(255, 255, 255)" stroke="none"/><ellipse cx="261.28391682851435" cy="672.4247034799276" rx="0.4" ry="0.4" fill="rgb(255, 255, 255)" stroke="none"/><ellipse cx="45.73784369580789" cy="264.6787664593999" rx="0.4" ry="0.4" fill="rgb(255, 255, 255)" stroke="none"/><ellipse cx="337.8056507488922" cy="246.3287416679437" rx="0.4" ry="0.4" fill="rgb(255, 255, 255)" stroke="none"/><ellipse cx="335.44176724668347" cy="401.2395614412947" rx="0.4" ry="0.4" fill="rgb(255, 255, 255)" stroke="none"/><ellipse cx="541.5609505926517" cy="587.7927474623779" rx="0.4" ry="0.4" fill="rgb(255, 255, 255)" stroke="none"/><ellipse cx="123.55711186888571" cy="278.44439739120617" rx="0.4" ry="0.4" fill="rgb(255, 255, 255)" stroke="none"/><ellipse cx="124.52382021256084" cy="574.3242402345018" rx="0.4" ry="0.4" fill="rgb(255, 255, 255)" stroke="none"/><ellipse cx="484.19849035043967" cy="288.7414701183747" rx="0.4" ry="0.4" fill="rgb(255, 255, 255)" stroke="none"/><ellipse cx="139.73681792577582" cy="97.4504722015597" rx="0.4" ry="0.4" fill="rgb(255, 255, 255)" stroke="none"/><ellipse cx="243.484605905775" cy="78.3336594840879" rx="0.4" ry="0.4" fill="rgb(255, 255, 255)" stroke="none"/><ellipse cx="389.6717162070968" cy="614.3796765943" rx="0.4" ry="0.4" fill="rgb(255, 255, 255)" stroke="none"/><ellipse cx="92.29610184164439" cy="295.16401343905494" rx="0.4" ry="0.4" fill="rgb(255, 255, 255)" stroke="none"/><ellipse cx="332.5377296139446" cy="1.6407788009432878" rx="0.4" ry="0.4" fill="rgb(255, 255, 255)" stroke="none"/><ellipse cx="471.63317100228494" cy="799.4299165899832" rx="0.4" ry="0.4" fill="rgb(255, 255, 255)" stroke="none"/><ellipse cx="47.98265458002704" cy="749.5844693809677" rx="0.4" ry="0.4" fill="rgb(255, 255, 255)" stroke="none"/><ellipse cx="465.3566798275841" cy="481.6839502491634" rx="0.4" ry="0.4" fill="rgb(255, 255, 255)" stroke="none"/><ellipse cx="384.64107197768317" cy="603.9078453373694" rx="0.4" ry="0.4" fill="rgb(255, 255, 255)" stroke="none"/><ellipse cx="580.0490236837558" cy="119.10172079873308" rx="0.4" ry="0.4" fill="rgb(255, 255, 255)" stroke="none"/><ellipse cx="199.13505561272112" cy="336.9162804595048" rx="0.4" ry="0.4" fill="rgb(255, 255, 255)" stroke="none"/><ellipse cx="359.88124719885667" cy="28.477106977988065" rx="0.4" ry="0.4" fill="rgb(255, 255, 255)" stroke="none"/><ellipse cx="322.65057320762173" cy="564.0813624899481" rx="0.4" ry="0.4" fill="rgb(255, 255, 255)" stroke="none"/><ellipse cx="423.7250411618242" cy="491.71300142016497" rx="0.4" ry="0.4" fill="rgb(255, 255, 255)" stroke="none"/><ellipse cx="166.13857273883244" cy="76.35474850524808" rx="0.4" ry="0.4" fill="rgb(255, 255, 255)" stroke="none"/><ellipse cx="480.0310740939372" cy="451.7623110811039" rx="0.4" ry="0.4" fill="rgb(255, 255, 255)" stroke="none"/><ellipse cx="558.3394967593813" cy="238.57817206759506" rx="0.4" ry="0.4" fill="rgb(255, 255, 255)" stroke="none"/><ellipse cx="403.9866194517538" cy="245.4167296459028" rx="0.4" ry="0.4" fill="rgb(255, 255, 255)" stroke="none"/><ellipse cx="516.8308698856829" cy="278.3968145685735" rx="0.4" ry="0.4" fill="rgb(255, 255, 255)" stroke="none"/><ellipse cx="420.8066028461586" cy="773.7319822398314" rx="0.4" ry="0.4" fill="rgb(255, 255, 255)" stroke="none"/><ellipse cx="250.98486922609453" cy="420.7509128624993" rx="0.4" ry="0.4" fill="rgb(255, 255, 255)" stroke="none"/><ellipse cx="117.0798416295506" cy="710.4224399384193" rx="0.4" ry="0.4" fill="rgb(255, 255, 255)" stroke="none"/><ellipse cx="497.5378912650304" cy="8.462531629597159" rx="0.4" ry="0.4" fill="rgb(255, 255, 255)" stroke="none"/><ellipse cx="557.9321796472714" cy="320.5387594823893" rx="0.4" ry="0.4" fill="rgb(255, 255, 255)" stroke="none"/><ellipse cx="220.13481486964025" cy="296.5574607810565" rx="0.4" ry="0.4" fill="rgb(255, 255, 255)" stroke="none"/><ellipse cx="171.6244497891914" cy="85.47985968691466" rx="0.4" ry="0.4" fill="rgb(255, 255, 255)" stroke="none"/><ellipse cx="411.1271453321665" cy="143.01524163679514" rx="0.4" ry="0.4" fill="rgb(255, 255, 255)" stroke="none"/><ellipse cx="133.13516337030777" cy="671.5882089097353" rx="0.4" ry="0.4" fill="rgb(255, 255, 255)" stroke="none"/><ellipse cx="525.7325450232737" cy="249.49736219004794" rx="0.4" ry="0.4" fill="rgb(255, 255, 255)" stroke="none"/><ellipse cx="127.9514085607965" cy="557.7571087670959" rx="0.4" ry="0.4" fill="rgb(255, 255, 255)" stroke="none"/><ellipse cx="62.482586778308004" cy="94.520263288471" rx="0.4" ry="0.4" fill="rgb(255, 255, 255)" stroke="none"/><ellipse cx="546.1339534298758" cy="110.06792314302025" rx="0.4" ry="0.4" fill="rgb(255, 255, 255)" stroke="none"/><ellipse cx="323.30234717103366" cy="271.8261778987923" rx="0.4" ry="0.4" fill="rgb(255, 255, 255)" stroke="none"/><ellipse cx="479.09238459841663" cy="598.6550077172117" rx="0.4" ry="0.4" fill="rgb(255, 255, 255)" stroke="none"/><ellipse cx="343.11617849405314" cy="459.5375300814684" rx="0.4" ry="0.4" fill="rgb(255, 255, 255)" stroke="none"/><ellipse cx="461.1525723188633" cy="694.6537785059567" rx="0.4" ry="0.4" fill="rgb(255, 255, 255)" stroke="none"/><ellipse cx="170.2968178206632" cy="753.9539240718909" rx="0.4" ry="0.4" fill="rgb(255, 255, 255)" stroke="none"/><ellipse cx="402.0702815973517" cy="42.87052649775642" rx="0.4" ry="0.4" fill="rgb(255, 255, 255)" stroke="none"/><ellipse cx="451.56607836042457" cy="741.7659033738946" rx="0.4" ry="0.4" fill="rgb(255, 255, 255)" stroke="none"/><ellipse cx="507.3750376685275" cy="635.2684840724182" rx="0.4" ry="0.4" fill="rgb(255, 255, 255)" stroke="none"/><ellipse cx="204.15748016428248" cy="713.068806730776" rx="0.4" ry="0.4" fill="rgb(255, 255, 255)" stroke="none"/><ellipse cx="422.0307593459439" cy="508.2115839411374" rx="0.4" ry="0.4" fill="rgb(255, 255, 255)" stroke="none"/><ellipse cx="374.12376169827326" cy="326.78047279663997" rx="0.4" ry="0.4" fill="rgb(255, 255, 255)" stroke="none"/><ellipse cx="30.358297514620915" cy="153.53618327545428" rx="0.4" ry="0.4" fill="rgb(255, 255, 255)" stroke="none"/><ellipse cx="105.37521957998001" cy="206.2620730478173" rx="0.4" ry="0.4" fill="rgb(255, 255, 255)" stroke="none"/><ellipse cx="597.9171317995372" cy="762.6285330042531" rx="0.4" ry="0.4" fill="rgb(255, 255, 255)" stroke="none"/><ellipse cx="505.7379457711399" cy="158.81215837297108" rx="0.4" ry="0.4" fill="rgb(255, 255, 255)" stroke="none"/><ellipse cx="390.56526259887136" cy="364.949511485492" rx="0.4" ry="0.4" fill="rgb(255, 255, 255)" stroke="none"/><ellipse cx="349.3018866990049" cy="492.6496069312849" rx="0.4" ry="0.4" fill="rgb(255, 255, 255)" stroke="none"/><ellipse cx="488.6483628956011" cy="83.2074122379801" rx="0.4" ry="0.4" fill="rgb(255, 255, 255)" stroke="none"/><ellipse cx="451.5979939169464" cy="287.00921982192733" rx="0.4" ry="0.4" fill="rgb(255, 255, 255)" stroke="none"/><ellipse cx="583.1886214098282" cy="574.7829289400031" rx="0.4" ry="0.4" fill="rgb(255, 255, 255)" stroke="none"/><ellipse cx="371.1943458878278" cy="146.84574162269328" rx="0.4" ry="0.4" fill="rgb(255, 255, 255)" stroke="none"/><ellipse cx="243.6194506258703" cy="526.0074918217201" rx="0.4" ry="0.4" fill="rgb(255, 255, 255)" stroke="none"/><ellipse cx="39.623285565847425" cy="62.50173547882891" rx="0.4" ry="0.4" fill="rgb(255, 255, 255)" stroke="none"/><ellipse cx="64.49568197782453" cy="172.13326062505487" rx="0.4" ry="0.4" fill="rgb(255, 255, 255)" stroke="none"/><ellipse cx="56.14185132882072" cy="108.28769219643632" rx="0.4" ry="0.4" fill="rgb(255, 255, 255)" stroke="none"/><ellipse cx="263.64951302504" cy="574.3383969430581" rx="0.4" ry="0.4" fill="rgb(255, 255, 255)" stroke="none"/><ellipse cx="372.1689559999204" cy="774.0206439000293" rx="0.4" ry="0.4" fill="rgb(255, 255, 255)" stroke="none"/><ellipse cx="182.51252077727034" cy="144.6543497723095" rx="0.4" ry="0.4" fill="rgb(255, 255, 255)" stroke="none"/><ellipse cx="66.80772291715735" cy="83.31927516623061" rx="0.4" ry="0.4" fill="rgb(255, 255, 255)" stroke="none"/><ellipse cx="486.67540201809953" cy="64.52738002750192" rx="0.4" ry="0.4" fill="rgb(255, 255, 255)" stroke="none"/><ellipse cx="584.1807323949976" cy="443.75699441136" rx="0.4" ry="0.4" fill="rgb(255, 255, 255)" stroke="none"/><ellipse cx="46.467768266747676" cy="64.16421445908594" rx="0.4" ry="0.4" fill="rgb(255, 255, 255)" stroke="none"/><ellipse cx="478.4840112810675" cy="595.2281976233726" rx="0.4" ry="0.4" fill="rgb(255, 255, 255)" stroke="none"/><ellipse cx="499.3847690948929" cy="585.7229817353426" rx="0.4" ry="0.4" fill="rgb(255, 255, 255)" stroke="none"/><ellipse cx="506.95488103763415" cy="472.76568013533176" rx="0.4" ry="0.4" fill="rgb(255, 255, 255)" stroke="none"/><ellipse cx="563.2786764753959" cy="408.5031376046965" rx="0.4" ry="0.4" fill="rgb(255, 255, 255)" stroke="none"/><ellipse cx="220.2765392948049" cy="331.70555145613497" rx="0.4" ry="0.4" fill="rgb(255, 255, 255)" stroke="none"/><ellipse cx="257.3756116695317" cy="596.7313188416985" rx="0.4" ry="0.4" fill="rgb(255, 255, 255)" stroke="none"/><ellipse cx="64.82375084860044" cy="649.7990104035324" rx="0.4" ry="0.4" fill="rgb(255, 255, 255)" stroke="none"/><ellipse cx="164.61085488621748" cy="109.12040720393072" rx="0.4" ry="0.4" fill="rgb(255, 255, 255)" stroke="none"/><ellipse cx="529.1947579580941" cy="175.45142604661947" rx="0.4" ry="0.4" fill="rgb(255, 255, 255)" stroke="none"/><ellipse cx="128.3788666384827" cy="286.8351110892178" rx="0.4" ry="0.4" fill="rgb(255, 255, 255)" stroke="none"/><ellipse cx="593.7460125235276" cy="650.4886473817354" rx="0.4" ry="0.4" fill="rgb(255, 255, 255)" stroke="none"/><ellipse cx="408.60690934153985" cy="344.870143846773" rx="0.4" ry="0.4" fill="rgb(255, 255, 255)" stroke="none"/><ellipse cx="381.7412744205739" cy="249.1390342486879" rx="0.4" ry="0.4" fill="rgb(255, 255, 255)" stroke="none"/><ellipse cx="498.99595606386515" cy="690.6166404516241" rx="0.4" ry="0.4" fill="rgb(255, 255, 255)" stroke="none"/><ellipse cx="548.1767777461204" cy="210.96135864234586" rx="0.4" ry="0.4" fill="rgb(255, 255, 255)" stroke="none"/><ellipse cx="513.1146260488943" cy="600.7502633437816" rx="0.4" ry="0.4" fill="rgb(255, 255, 255)" stroke="none"/><ellipse cx="278.13311787785307" cy="243.70397006909386" rx="0.4" ry="0.4" fill="rgb(255, 255, 255)" stroke="none"/><ellipse cx="565.7355379866908" cy="146.95447269896746" rx="0.4" ry="0.4" fill="rgb(255, 255, 255)" stroke="none"/><ellipse cx="424.659170668816" cy="280.83464840531445" rx="0.4" ry="0.4" fill="rgb(255, 255, 255)" stroke="none"/><ellipse cx="120.82297993139034" cy="582.2580951983488" rx="0.4" ry="0.4" fill="rgb(255, 255, 255)" stroke="none"/><ellipse cx="475.74070913144567" cy="313.98224995279395" rx="0.4" ry="0.4" fill="rgb(255, 255, 255)" stroke="none"/><ellipse cx="526.9804472941822" cy="742.5732904436206" rx="0.4" ry="0.4" fill="rgb(255, 255, 255)" stroke="none"/><ellipse cx="489.2747128149747" cy="751.9977664681934" rx="0.4" ry="0.4" fill="rgb(255, 255, 255)" stroke="none"/><ellipse cx="22.107408399779203" cy="8.870142198099451" rx="0.4" ry="0.4" fill="rgb(255, 255, 255)" stroke="none"/><ellipse cx="153.91472180901235" cy="27.21546242795032" rx="0.4" ry="0.4" fill="rgb(255, 255, 255)" stroke="none"/><ellipse cx="344.28925074845586" cy="758.2215933089707" rx="0.4" ry="0.4" fill="rgb(255, 255, 255)" stroke="none"/><ellipse cx="184.15639982090912" cy="88.88318726947819" rx="0.4" ry="0.4" fill="rgb(255, 255, 255)" stroke="none"/><ellipse cx="12.669733385301551" cy="729.5285206628048" rx="0.4" ry="0.4" fill="rgb(255, 255, 255)" stroke="none"/><ellipse cx="74.8857717304789" cy="185.9698309153597" rx="0.4" ry="0.4" fill="rgb(255, 255, 255)" stroke="none"/><ellipse cx="105.45895484286434" cy="490.2524594750739" rx="0.4" ry="0.4" fill="rgb(255, 255, 255)" stroke="none"/><ellipse cx="269.88816287620125" cy="386.3799454883729" rx="0.4" ry="0.4" fill="rgb(255, 255, 255)" stroke="none"/><ellipse cx="332.4758641666817" cy="785.992707810142" rx="0.4" ry="0.4" fill="rgb(255, 255, 255)" stroke="none"/><ellipse cx="453.0072698048592" cy="652.0941716586278" rx="0.4" ry="0.4" fill="rgb(255, 255, 255)" stroke="none"/><ellipse cx="235.85895194018732" cy="426.6639637725948" rx="0.4" ry="0.4" fill="rgb(255, 255, 255)" stroke="none"/><ellipse cx="580.3307031036013" cy="369.78808352910517" rx="0.4" ry="0.4" fill="rgb(255, 255, 255)" stroke="none"/><ellipse cx="378.8529135441514" cy="742.1061271413461" rx="0.4" ry="0.4" fill="rgb(255, 255, 255)" stroke="none"/><ellipse cx="121.26218460230209" cy="401.8799162184616" rx="0.4" ry="0.4" fill="rgb(255, 255, 255)" stroke="none"/><ellipse cx="316.72745346452746" cy="731.2480953631367" rx="0.4" ry="0.4" fill="rgb(255, 255, 255)" stroke="none"/><ellipse cx="357.42542986378135" cy="688.0760278397948" rx="0.4" ry="0.4" fill="rgb(255, 255, 255)" stroke="none"/><ellipse cx="347.7574602577257" cy="278.62428393228475" rx="0.4" ry="0.4" fill="rgb(255, 255, 255)" stroke="none"/><ellipse cx="33.89899529702305" cy="797.473406547908" rx="0.4" ry="0.4" fill="rgb(255, 255, 255)" stroke="none"/><ellipse cx="452.24269893785214" cy="773.1530456382068" rx="0.4" ry="0.4" fill="rgb(255, 255, 255)" stroke="none"/><ellipse cx="574.2385791878982" cy="530.9881454560461" rx="0.4" ry="0.4" fill="rgb(255, 255, 255)" stroke="none"/><ellipse cx="353.0982190895296" cy="45.84647633189842" rx="0.4" ry="0.4" fill="rgb(255, 255, 255)" stroke="none"/><ellipse cx="185.4574728300493" cy="221.13400380813175" rx="0.4" ry="0.4" fill="rgb(255, 255, 255)" stroke="none"/><ellipse cx="117.23822892631671" cy="383.9048955929834" rx="43.619114463158354" ry="43.619114463158354" fill="rgb(80, 80, 80)" stroke="rgb(0, 0, 0)"/><ellipse cx="139.42272673216718" cy="672.7560600655005" rx="54.71136336608358" ry="54.71136336608358" fill="rgb(80, 80, 80)" stroke="rgb(0, 0, 0)"/><ellipse cx="321.42877253235577" cy="121.4287725323558" rx="45.7143862661779" ry="45.7143862661779" fill="rgb(80, 80, 80)" stroke="rgb(0, 0, 0)"/><ellipse cx="361.9869100656523" cy="428.653576732319" rx="65.99345503282615" ry="65.99345503282615" fill="rgb(40, 40, 40)" stroke="rgb(0, 0, 0)"/><ellipse cx="576.7913455979708" cy="443.45801226463755" rx="73.39567279898543" ry="73.39567279898543" fill="rgb(40, 40, 40)" stroke="rgb(0, 0, 0)"/><ellipse cx="501.25117204586843" cy="634.5845053792018" rx="35.6255860229342" ry="35.6255860229342" fill="rgb(130, 130, 130)" stroke="rgb(0, 0, 0)"/><text x="109" y="505" fill="rgb(255, 255, 255)" stroke="none" text-anchor="start" font-family="sans-serif" font-size="12" letter-spacing="0.5">The Martian</text><ellipse cx="100" cy="500" rx="5" ry="5" fill="rgb(255, 255, 255)" stroke="none"/></svg>