<?xml version="1.0" standalone="no"?><!DOCTYPE svg PUBLIC "-//W3C//DTD SVG 1.1//EN" "http://www.w3.org/Graphics/SVG/1.1/DTD/svg11.dtd"><svg width="600" height="800" version="1.1" xmlns:xlink="http://www.w3.org/1999/xlink" xmlns="http://www.w3.org/2000/svg"><defs xmlns="http://www.w3.org/1999/xhtml"><style type="text/css"><![CDATA[
body { background-color: rgb(234, 234, 234); }
#canvas svg { box-shadow: rgba(0, 0, 0, 0.0588235) 0px 3px 2px 0px, rgba(0, 0, 0, 0.0196078) -1px -1px 1px 0px inset; border-width: 1px; border-style: solid; border-color: rgb(226, 226, 226) rgb(226, 226, 226) rgb(206, 206, 206); background-color: white; }]]></style></defs><defs xmlns="http://www.w3.org/1999/xhtml"><style type="text/css"></style></defs><rect x="0" y="0" width="600" height="800" fill="rgb(0, 0, 0)" stroke="none"/><ellipse cx="28.00876446624514" cy="428.2059889435795" rx="0.4" ry="0.4" fill="rgb(255, 255, 255)" stroke="none"/><ellipse cx="325.5949286552621" cy="350.1305159175411" rx="0.4" ry="0.4" fill="rgb(255, 255, 255)" stroke="none"/><ellipse cx="454.96817611288645" cy="742.8839304097788" rx="0.4" ry="0.4" fill="rgb(255, 255, 255)" stroke="none"/><ellipse cx="255.75603924773884" cy="159.36663335816536" rx="0.4" ry="0.4" fill="rgb(255, 255, 255)" stroke="none"/><ellipse cx="326.9378016193724" cy="432.9993987581421" rx="0.4" ry="0.4" fill="rgb(255, 255, 255)" stroke="none"/><ellipse cx="192.44482393894788" cy="682.3779069345483" rx="0.4" ry="0.4" fill="rgb(255, 255, 255)" stroke="none"/><ellipse cx="375.0893475930256" cy="420.8564254595288" rx="0.4" ry="0.4" fill="rgb(255, 255, 255)" stroke="none"/><ellipse cx="421.25160383073626" cy="137.7695084329895" rx="0.4" ry="0.4" fill="rgb(255, 255, 255)" stroke="none"/><ellipse cx="155.79212828441186" cy="733.8502023205409" rx="0.4" ry="0.4" fill="rgb(255, 255, 255)" stroke="none"/><ellipse cx="130.7824770346142" cy="224.1651528219812" rx="0.4" ry="0.4" fill="rgb(255, 255, 255)" stroke="none"/><ellipse cx="412.33026036921706" cy="553.5233815795749" rx="0.4" ry="0.4" fill="rgb(255, 255, 255)" stroke="none"/><ellipse cx="488.3324732509555" cy="295.1403864028105" rx="0.4" ry="0.4" fill="rgb(255, 255, 255)" stroke="none"/><ellipse cx="304.180313644174" cy="23.08257728820262" rx="0.4" ry="0.4" fill="rgb(255, 255, 255)" stroke="none"/><ellipse cx="207.7377576534793" cy="749.1760867506182" rx="0.4" ry="0.4" fill="rgb(255, 255, 255)" stroke="none"/><ellipse cx="342.3773315782583" cy="275.4673268059534" rx="0.4" ry="0.4" fill="rgb(255, 255, 255)" stroke="none"/><ellipse cx="128.53244390348442" cy="618.9632458406338" rx="0.4" ry="0.4" fill="rgb(255, 255, 255)" stroke="none"/><ellipse cx="448.21173144330595" cy="420.5528680358439" rx="0.4" ry="0.4" fill="rgb(255, 255, 255)" stroke="none"/><ellipse cx="395.68077132415533" cy="297.3287819481339" rx="0.4" ry="0.4" fill="rgb(255, 255, 255)" stroke="none"/><ellipse cx="583.7268382729417" cy="78.00612319534714" rx="0.4" ry="0.4" fill="rgb(255, 255, 255)" stroke="none"/><ellipse cx="521.4906154084578" cy="569.0484105110155" rx="0.4" ry="0.4" fill="rgb(255, 255, 255)" stroke="none"/><ellipse cx="473.2189198107986" cy="95.48178040096272" rx="0.4" ry="0.4" fill="rgb(255, 255, 255)" stroke="none"/><ellipse cx="247.5889332255416" cy="696.6221893459852" rx="0.4" ry="0.4" fill="rgb(255, 255, 255)" stroke="none"/><ellipse cx="358.12151215985" cy="577.1946927009358" rx="0.4" ry="0.4" fill="rgb(255, 255, 255)" stroke="none"/><ellipse cx="504.1587162608917" cy="247.05403446289688" rx="0.4" ry="0.4" fill="rgb(255, 255, 255)" stroke="none"/><ellipse cx="420.263404160709" cy="322.72062390655026" rx="0.4" ry="0.4" fill="rgb(255, 255, 255)" stroke="none"/><ellipse cx="291.22554754264024" cy="466.3998120678839" rx="0.4" ry="0.4" fill="rgb(255, 255, 255)" stroke="none"/><ellipse cx="332.13677514464234" cy="500.12182083994" rx="0.4" ry="0.4" fill="rgb(255, 255, 255)" stroke="none"/><ellipse cx="199.97650975907968" cy="706.1274211133234" rx="0.4" ry="0.4" fill="rgb(255, 255, 255)" stroke="none"/><ellipse cx="569.2322990384174" cy="156.72193976684417" rx="0.4" ry="0.4" fill="rgb(255, 255, 255)" stroke="none"/><ellipse cx="479.81225717078877" cy="567.5742186179478" rx="0.4" ry="0.4" fill="rgb(255, 255, 255)" stroke="none"/><ellipse cx="254.4860957051935" cy="729.1683277684933" rx="0.4" ry="0.4" fill="rgb(255, 255, 255)" stroke="none"/><ellipse cx="331.9074488901913" cy="8.99451023818827" rx="0.4" ry="0.4" fill="rgb(255, 255, 255)" stroke="none"/><ellipse cx="214.92291209118878" cy="533.3884052330562" rx="0.4" ry="0.4" fill="rgb(255, 255, 255)" stroke="none"/><ellipse cx="153.16300709016733" cy="430.8787399825892" rx="0.4" ry="0.4" fill="rgb(255, 255, 255)" stroke="none"/><ellipse cx="117.12626725727104" cy="550.70732502454" rx="0.4" ry="0.4" fill="rgb(255, 255, 255)" stroke="none"/><ellipse cx="461.76767906022616" cy="583.1370960834427" rx="0.4" ry="0.4" fill="rgb(255, 255, 255)" stroke="none"/><ellipse cx="147.83407838332096" cy="258.8433917012957" rx="0.4" ry="0.4" fill="rgb(255, 255, 255)" stroke="none"/><ellipse cx="308.9684080578847" cy="104.23727705762235" rx="0.4" ry="0.4" fill="rgb(255, 255, 255)" stroke="none"/><ellipse cx="174.95947988825543" cy="712.4580666040541" rx="0.4" ry="0.4" fill="rgb(255, 255, 255)" stroke="none"/><ellipse cx="435.0310485485549" cy="263.61346272209636" rx="0.4" ry="0.4" fill="rgb(255, 255, 255)" stroke="none"/><ellipse cx="193.70468430209152" cy="377.286579070187" rx="0.4" ry="0.4" fill="rgb(255, 255, 255)" stroke="none"/><ellipse cx="392.3359032104966" cy="371.6158186763645" rx="0.4" ry="0.4" fill="rgb(255, 255, 255)" stroke="none"/><ellipse cx="315.0668769743491" cy="445.7181437922294" rx="0.4" ry="0.4" fill="rgb(255, 255, 255)" stroke="none"/><ellipse cx="301.6576418939306" cy="785.4482622798735" rx="0.4" ry="0.4" fill="rgb(255, 255, 255)" stroke="none"/><ellipse cx="477.03957700604155" cy="643.5140598153951" rx="0.4" ry="0.4" fill="rgb(255, 255, 255)" stroke="none"/><ellipse cx="157.27810324998933" cy="627.3824879182936" rx="0.4" ry="0.4" fill="rgb(255, 255, 255)" stroke="none"/><ellipse cx="424.35635215102343" cy="282.3744228090879" rx="0.4" ry="0.4" fill="rgb(255, 255, 255)" stroke="none"/><ellipse cx="119.88033172940087" cy="327.7093477191752" rx="0.4" ry="0.4" fill="rgb(255, 255, 255)" stroke="none"/><ellipse cx="465.02514197043485" cy="243.18962889455554" rx="0.4" ry="0.4" fill="rgb(255, 255, 255)" stroke="none"/><ellipse cx="288.14741852212313" cy="730.4559942549411" rx="0.4" ry="0.4" fill="rgb(255, 255, 255)" stroke="none"/><ellipse cx="558.8568096364298" cy="80.02367353257983" rx="0.4" ry="0.4" fill="rgb(255, 255, 255)" stroke="none"/><ellipse cx="177.89446731046655" cy="728.7514589300681" rx="0.4" ry="0.4" fill="rgb(255, 255, 255)" stroke="none"/><ellipse cx="547.0496739573259" cy="713.4503326809225" rx="0.4" ry="0.4" fill="rgb(255, 255, 255)" stroke="none"/><ellipse cx="337.35620452996346" cy="7.523788356683525" rx="0.4" ry="0.4" fill="rgb(255, 255, 255)" stroke="none"/><ellipse cx="534.1643259656125" cy="362.0725092968524" rx="0.4" ry="0.4" fill="rgb(255, 255, 255)" stroke="none"/><ellipse cx="186.46160779382365" cy="757.27987434524" rx="0.4" ry="0.4" fill="rgb(255, 255, 255)" stroke="none"/><ellipse cx="468.5104690219368" cy="47.98385930268232" rx="0.4" ry="0.4" fill="rgb(255, 255, 255)" stroke="none"/><ellipse cx="492.1364702452811" cy="90.52262136130994" rx="0.4" ry="0.4" fill="rgb(255, 255, 255)" stroke="none"/><ellipse cx="194.20382205684854" cy="732.8732751814332" rx="0.4" ry="0.4" fill="rgb(255, 255, 255)" stroke="none"/><ellipse cx="203.64884732994474" cy="768.6111128159947" rx="0.4" ry="0.4" fill="rgb(255, 255, 255)" stroke="none"/><ellipse cx="299.0550852407444" cy="171.00499386517782" rx="0.4" ry="0.4" fill="rgb(255, 255, 255)" stroke="none"/><ellipse cx="277.28185165185886" cy="288.02987181437646" rx="0.4" ry="0.4" fill="rgb(255, 255, 255)" stroke="none"/><ellipse cx="373.868215344828" cy="321.1368600137181" rx="0.4" ry="0.4" fill="rgb(255, 255, 255)" stroke="none"/><ellipse cx="377.697789393617" cy="151.10337986965644" rx="0.4" ry="0.4" fill="rgb(255, 255, 255)" stroke="none"/><ellipse cx="37.999713603927354" cy="790.3540510416051" rx="0.4" ry="0.4" fill="rgb(255, 255, 255)" stroke="none"/><ellipse cx="473.5201215879403" cy="669.4841414189062" rx="0.4" ry="0.4" fill="rgb(255, 255, 255)" stroke="none"/><ellipse cx="305.36474389444817" cy="666.0349711866498" rx="0.4" ry="0.4" fill="rgb(255, 255, 255)" stroke="none"/><ellipse cx="556.9947245121127" cy="621.446531416719" rx="0.4" ry="0.4" fill="rgb(255, 255, 255)" stroke="none"/><ellipse cx="22.188926294860558" cy="196.26550870110364" rx="0.4" ry="0.4" fill="rgb(255, 255, 255)" stroke="none"/><ellipse cx="313.34929416403025" cy="757.629794482214" rx="0.4" ry="0.4" fill="rgb(255, 255, 255)" stroke="none"/><ellipse cx="368.3559044357141" cy="638.2666202793617" rx="0.4" ry="0.4" fill="rgb(255, 255, 255)" stroke="none"/><ellipse cx="597.0987488217265" cy="150.62255880583493" rx="0.4" ry="0.4" fill="rgb(255, 255, 255)" stroke="none"/><ellipse cx="515.8325611351627" cy="761.1752236251533" rx="0.4" ry="0.4" fill="rgb(255, 255, 255)" stroke="none"/><ellipse cx="381.998282546546" cy="736.1639273388625" rx="0.4" ry="0.4" fill="rgb(255, 255, 255)" stroke="none"/><ellipse cx="132.4588681210583" cy="71.41754258872197" rx="0.4" ry="0.4" fill="rgb(255, 255, 255)" stroke="none"/><ellipse cx="9.497974384758479" cy="502.70173025043" rx="0.4" ry="0.4" fill="rgb(255, 255, 255)" stroke="none"/><ellipse cx="139.27664523102484" cy="554.136287278939" rx="0.4" ry="0.4" fill="rgb(255, 255, 255)" stroke="none"/><ellipse cx="97.68617283552703" cy="299.6162301157483" rx="0.4" ry="0.4" fill="rgb(255, 255, 255)" stroke="none"/><ellipse cx="529.5394472477165" cy="111.10058954156531" rx="0.4" ry="0.4" fill="rgb(255, 255, 255)" stroke="none"/><ellipse cx="459.28491106726835" cy="304.7662497909812" rx="0.4" ry="0.4" fill="rgb(255, 255, 255)" stroke="none"/><ellipse cx="412.0885994027871" cy="120.19250807387766" rx="0.4" ry="0.4" fill="rgb(255, 255, 255)" stroke="none"/><ellipse cx="581.7381244991506" cy="348.7282838707202" rx="0.4" ry="0.4" fill="rgb(255, 255, 255)" stroke="none"/><ellipse cx="114.50666005125227" cy="631.2294052249795" rx="0.4" ry="0.4" fill="rgb(255, 255, 255)" stroke="none"/><ellipse cx="497.66480441288905" cy="9.914000431209224" rx="0.4" ry="0.4" fill="rgb(255, 255, 255)" stroke="none"/><ellipse cx="551.858300269384" cy="359.2312480938874" rx="0.4" ry="0.4" fill="rgb(255, 255, 255)" stroke="none"/><ellipse cx="440.04191702398987" cy="214.41498474725796" rx="0.4" ry="0.4" fill="rgb(255, 255, 255)" stroke="none"/><ellipse cx="158.27570694776912" cy="96.1296440584885" rx="0.4" ry="0.4" fill="rgb(255, 255, 255)" stroke="none"/><ellipse cx="568.5229672943747" cy="67.12605981969588" rx="0.4" ry="0.4" fill="rgb(255, 255, 255)" stroke="none"/><ellipse cx="287.6456942017888" cy="168.52989780682782" rx="0.4" ry="0.4" fill="rgb(255, 255, 255)" stroke="none"/><ellipse cx="335.26586744423696" cy="322.56341542339584" rx="0.4" ry="0.4" fill="rgb(255, 255, 255)" stroke="none"/><ellipse cx="188.3312313150816" cy="372.35971194920785" rx="0.4" ry="0.4" fill="rgb(255, 255, 255)" stroke="none"/><ellipse cx="108.80075756680382" cy="428.1072675174242" rx="0.4" ry="0.4" fill="rgb(255, 255, 255)" stroke="none"/><ellipse cx="35.98585208420499" cy="117.16476734054702" rx="0.4" ry="0.4" fill="rgb(255, 255, 255)" stroke="none"/><ellipse cx="120.81989975765998" cy="316.96954483616315" rx="0.4" ry="0.4" fill="rgb(255, 255, 255)" stroke="none"/><ellipse cx="331.5322389657996" cy="107.22131780285889" rx="0.4" ry="0.4" fill="rgb(255, 255, 255)" stroke="none"/><ellipse cx="291.3822425857835" cy="504.73172348613264" rx="0.4" ry="0.4" fill="rgb(255, 255, 255)" stroke="none"/><ellipse cx="296.50922243077986" cy="179.11363849611098" rx="0.4" ry="0.4" fill="rgb(255, 255, 255)" stroke="none"/><ellipse cx="450.770612248063" cy="469.4025432764585" rx="0.4" ry="0.4" fill="rgb(255, 255, 255)" stroke="none"/><ellipse cx="291.74599515042036" cy="147.95470962434845" rx="0.4" ry="0.4" fill="rgb(255, 255, 255)" stroke="none"/><ellipse cx="416.7795178509375" cy="188.90998984407972" rx="0.4" ry="0.4" fill="rgb(255, 255, 255)" stroke="none"/><ellipse cx="488.86797597597285" cy="664.2595980133482" rx="0.4" ry="0.4" fill="rgb(255, 255, 255)" stroke="none"/><ellipse cx="429.2217608855863" cy="761.5425406374401" rx="0.4" ry="0.4" fill="rgb(255, 255, 255)" stroke="none"/><ellipse cx="30.323917060594276" cy="476.4339026323146" rx="0.4" ry="0.4" fill="rgb(255, 255, 255)" stroke="none"/><ellipse cx="581.2654906190998" cy="672.5883940179405" rx="0.4" ry="0.4" fill="rgb(255, 255, 255)" stroke="none"/><ellipse cx="68.73552027455369" cy="42.16140672034232" rx="0.4" ry="0.4" fill="rgb(255, 255, 255)" stroke="none"/><ellipse cx="20.09161023699786" cy="500.34290432851714" rx="0.4" ry="0.4" fill="rgb(255, 255, 255)" stroke="none"/><ellipse cx="134.24911144077467" cy="712.3464394519482" rx="0.4" ry="0.4" fill="rgb(255, 255, 255)" stroke="none"/><ellipse cx="582.8561270564107" cy="500.9254040856911" rx="0.4" ry="0.4" fill="rgb(255, 255, 255)" stroke="none"/><ellipse cx="542.1051442039409" cy="324.4802133447445" rx="0.4" ry="0.4" fill="rgb(255, 255, 255)" stroke="none"/><ellipse cx="440.8123092002914" cy="287.15267038087813" rx="0.4" ry="0.4" fill="rgb(255, 255, 255)" stroke="none"/><ellipse cx="495.9248754939516" cy="366.45717809869234" rx="0.4" ry="0.4" fill="rgb(255, 255, 255)" stroke="none"/><ellipse cx="515.1822403222974" cy="189.8273860112843" rx="0.4" ry="0.4" fill="rgb(255, 255, 255)" stroke="none"/><ellipse cx="70.70315447482636" cy="655.2952823346601" rx="0.4" ry="0.4" fill="rgb(255, 255, 255)" stroke="none"/><ellipse cx="367.3515536840291" cy="506.01706127017343" rx="0.4" ry="0.4" fill="rgb(255, 255, 255)" stroke="none"/><ellipse cx="260.4607039730894" cy="441.43011547095676" rx="0.4" ry="0.4" fill="rgb(255, 255, 255)" stroke="none"/><ellipse cx="166.20555625741838" cy="224.27787110563492" rx="0.4" ry="0.4" fill="rgb(255, 255, 255)" stroke="none"/><ellipse cx="191.80245603240857" cy="396.479980969289" rx="0.4" ry="0.4" fill="rgb(255, 255, 255)" stroke="none"/><ellipse cx="462.11202687464646" cy="321.2893852118789" rx="0.4" ry="0.4" fill="rgb(255, 255, 255)" stroke="none"/><ellipse cx="472.55202516826455" cy="405.53573297672096" rx="0.4" ry="0.4" fill="rgb(255, 255, 255)" stroke="none"/><ellipse cx="114.14534048200125" cy="587.1241554289533" rx="0.4" ry="0.4" fill="rgb(255, 255, 255)" stroke="none"/><ellipse cx="199.86117844946145" cy="398.09094712331506" rx="0.4" ry="0.4" fill="rgb(255, 255, 255)" stroke="none"/><ellipse cx="315.29007423346656" cy="421.40240767405857" rx="0.4" ry="0.4" fill="rgb(255, 255, 255)" stroke="none"/><ellipse cx="569.0227781797245" cy="655.1278695447742" rx="0.4" ry="0.4" fill="rgb(255, 255, 255)" stroke="none"/><ellipse cx="44.524823827415275" cy="152.63738017483809" rx="0.4" ry="0.4" fill="rgb(255, 255, 255)" stroke="none"/><ellipse cx="147.75735210798567" cy="18.00914388054302" rx="0.4" ry="0.4" fill="rgb(255, 255, 255)" stroke="none"/><ellipse cx="16.1836082994256" cy="722.5102335009578" rx="0.4" ry="0.4" fill="rgb(255, 255, 255)" stroke="none"/><ellipse cx="571.1746084404892" cy="680.0759377126477" rx="0.4" ry="0.4" fill="rgb(255, 255, 255)" stroke="none"/><ellipse cx="184.81531720813123" cy="556.035296731699" rx="0.4" ry="0.4" fill="rgb(255, 255, 255)" stroke="none"/><ellipse cx="207.58258748110876" cy="90.51527776312778" rx="0.4" ry="0.4" fill="rgb(255, 255, 255)" stroke="none"/><ellipse cx="283.2226985852126" cy="484.4799755199947" rx="0.4" ry="0.4" fill="rgb(255, 255, 255)" stroke="none"/><ellipse cx="150.7479515500586" cy="349.00381388673054" rx="0.4" ry="0.4" fill="rgb(255, 255, 255)" stroke="none"/><ellipse cx="70.25879906725008" cy="654.1219826748792" rx="0.4" ry="0.4" fill="rgb(255, 255, 255)" stroke="none"/><ellipse cx="207.029392354298" cy="610.697387989415" rx="0.4" ry="0.4" fill="rgb(255, 255, 255)" stroke="none"/><ellipse cx="522.3231880552114" cy="224.92392907107987" rx="0.4" ry="0.4" fill="rgb(255, 255, 255)" stroke="none"/><ellipse cx="364.4530758859769" cy="207.75460566393616" rx="0.4" ry="0.4" fill="rgb(255, 255, 255)" stroke="none"/><ellipse cx="386.34810613283184" cy="377.39025047933234" rx="0.4" ry="0.4" fill="rgb(255, 255, 255)" stroke="none"/><ellipse cx="231.91762816411276" cy="2.100769677785408" rx="0.4" ry="0.4" fill="rgb(255, 255, 255)" stroke="none"/><ellipse cx="472.88030525972243" cy="640.0681505760227" rx="0.4" ry="0.4" fill="rgb(255, 255, 255)" stroke="none"/><ellipse cx="168.6574661165526" cy="381.14919466942007" rx="0.4" ry="0.4" fill="rgb(255, 255, 255)" stroke="none"/><ellipse cx="213.50175065614158" cy="738.051715944881" rx="0.4" ry="0.4" fill="rgb(255, 255, 255)" stroke="none"/><ellipse cx="158.35893524131558" cy="114.75526742670255" rx="0.4" ry="0.4" fill="rgb(255, 255, 255)" stroke="none"/><ellipse cx="46.16749308553922" cy="590.3216183430535" rx="0.4" ry="0.4" fill="rgb(255, 255, 255)" stroke="none"/><ellipse cx="228.38629381516733" cy="149.10761855246744" rx="0.4" ry="0.4" fill="rgb(255, 255, 255)" stroke="none"/><ellipse cx="433.18302993042204" cy="46.826984950564565" rx="0.4" ry="0.4" fill="rgb(255, 255, 255)" stroke="none"/><ellipse cx="108.7758116720267" cy="108.7758116720267" rx="39.38790583601335" ry="39.38790583601335" fill="rgb(130, 130, 130)" stroke="rgb(0, 0, 0)"/><ellipse cx="146.3273802880442" cy="679.6607136213776" rx="58.16369014402209" ry="58.16369014402209" fill="rgb(80, 80, 80)" stroke="rgb(0, 0, 0)"/><ellipse cx="362.3682102480724" cy="429.0348769147391" rx="66.1841051240362" ry="66.1841051240362" fill="rgb(40, 40, 40)" stroke="rgb(0, 0, 0)"/><ellipse cx="493.94456591090477" cy="93.94456591090474" rx="31.972282955452375" ry="31.972282955452375" fill="rgb(130, 130, 130)" stroke="rgb(0, 0, 0)"/><ellipse cx="483.44795102870717" cy="350.1146176953738" rx="26.72397551435357" ry="26.72397551435357" fill="rgb(130, 130, 130)" stroke="rgb(0, 0, 0)"/><ellipse cx="494.5132333207772" cy="627.8465666541106" rx="32.25661666038859" ry="32.25661666038859" fill="rgb(130, 130, 130)" stroke="rgb(0, 0, 0)"/><text x="109" y="505" fill="rgb(255, 255, 255)" stroke="none" text-anchor="start" font-family="sans-serif" font-size="12" letter-spacing="0.5">The Martian</text><ellipse cx="100" cy="500" rx="5" ry="5" fill="rgb(255, 255, 255)" stroke="none"/></svg>